<svg width="30" height="30" viewBox="0 0 30 30" fill="none" xmlns="http://www.w3.org/2000/svg">
<path d="M17.7273 9.15739C17.7273 8.982 17.773 8.80173 17.8645 8.61658C17.9559 8.43146 18.0579 8.30967 18.1705 8.25119C18.8523 7.90143 19.5493 7.63116 20.2615 7.44038C20.9736 7.2496 21.7226 7.15421 22.5085 7.15421C22.9996 7.15421 23.4846 7.19396 23.9635 7.27345C24.4424 7.35294 24.9091 7.47218 25.3636 7.63116C25.5 7.69475 25.625 7.81232 25.7386 7.98386C25.8523 8.15544 25.9091 8.34844 25.9091 8.56288C25.9091 8.92742 25.8239 9.20509 25.6534 9.39587C25.483 9.58665 25.2727 9.63434 25.0227 9.53895C24.6409 9.37997 24.2386 9.26073 23.8159 9.18124C23.3932 9.10175 22.9545 9.062 22.5 9.062C21.8409 9.062 21.2045 9.14944 20.5909 9.32432C19.9773 9.49921 19.375 9.76153 18.7841 10.1113C18.4659 10.2703 18.2102 10.2623 18.017 10.0874C17.8239 9.91256 17.7273 9.60254 17.7273 9.15739ZM17.7273 19.6502C17.7273 19.4656 17.773 19.2759 17.8645 19.081C17.9559 18.8861 18.0579 18.7579 18.1705 18.6963C18.8523 18.3466 19.5493 18.0843 20.2615 17.9094C20.9736 17.7345 21.7226 17.6471 22.5085 17.6471C22.9996 17.6471 23.4846 17.6868 23.9635 17.7663C24.4424 17.8458 24.9091 17.965 25.3636 18.124C25.5 18.1876 25.625 18.3052 25.7386 18.4767C25.8523 18.6483 25.9091 18.8413 25.9091 19.0557C25.9091 19.4203 25.8239 19.6979 25.6534 19.8887C25.483 20.0795 25.2727 20.1272 25.0227 20.0318C24.6409 19.8728 24.2386 19.7536 23.8159 19.6741C23.3932 19.5946 22.9545 19.5548 22.5 19.5548C21.8409 19.5548 21.2045 19.6343 20.5909 19.7933C19.9773 19.9523 19.375 20.2067 18.7841 20.5564C18.4659 20.7154 18.2102 20.7154 18.017 20.5564C17.8239 20.3975 17.7273 20.0954 17.7273 19.6502ZM17.7273 14.4038C17.7273 14.2284 17.773 14.0482 17.8645 13.863C17.9559 13.6779 18.0579 13.5561 18.1705 13.4976C18.8523 13.1479 19.5493 12.8776 20.2615 12.6868C20.9736 12.496 21.7226 12.4006 22.5085 12.4006C22.9996 12.4006 23.4846 12.4404 23.9635 12.5199C24.4424 12.5994 24.9091 12.7186 25.3636 12.8776C25.5 12.9412 25.625 13.0587 25.7386 13.2303C25.8523 13.4019 25.9091 13.5949 25.9091 13.8093C25.9091 14.1738 25.8239 14.4515 25.6534 14.6423C25.483 14.8331 25.2727 14.8808 25.0227 14.7854C24.6409 14.6264 24.2386 14.5072 23.8159 14.4277C23.3932 14.3482 22.9545 14.3084 22.5 14.3084C21.8409 14.3084 21.2045 14.3959 20.5909 14.5707C19.9773 14.7456 19.375 15.0079 18.7841 15.3577C18.4659 15.5167 18.2102 15.5087 18.017 15.3339C17.8239 15.159 17.7273 14.849 17.7273 14.4038ZM7.09091 23.8474C8.30832 23.8474 9.49335 24.0461 10.646 24.4436C11.7987 24.841 12.9318 25.4372 14.0455 26.2321V5.86645C13.0227 4.91256 11.9134 4.17329 10.7175 3.64865C9.52167 3.12401 8.3128 2.86169 7.09091 2.86169C6.22727 2.86169 5.38068 3.01272 4.55114 3.31479C3.72159 3.61685 2.88636 3.99046 2.04545 4.43561V25.1351C2.75 24.69 3.55114 24.3641 4.44886 24.1574C5.34659 23.9507 6.22727 23.8474 7.09091 23.8474ZM16.0909 26.2321C17.2273 25.4372 18.3409 24.841 19.4318 24.4436C20.5227 24.0461 21.6818 23.8474 22.9091 23.8474C23.7727 23.8474 24.6648 23.9428 25.5852 24.1335C26.5057 24.3243 27.2955 24.5787 27.9545 24.8967V4.43561C27.1818 3.89507 26.3657 3.49762 25.5061 3.24324C24.6465 2.98887 23.7808 2.86169 22.9091 2.86169C21.6818 2.86169 20.4943 3.12401 19.3466 3.64865C18.1989 4.17329 17.1136 4.91256 16.0909 5.86645V26.2321ZM15.0682 30C14.8969 30 14.7347 29.9762 14.5817 29.9285C14.4288 29.8808 14.2955 29.7933 14.1818 29.6661C13.1136 28.744 11.979 28.0286 10.7779 27.5199C9.57685 27.0111 8.34784 26.7568 7.09091 26.7568C6.26052 26.7568 5.44498 26.8998 4.64427 27.186C3.84355 27.4722 3.04545 27.8219 2.25 28.2353C1.725 28.5851 1.21875 28.5374 0.73125 28.0922C0.24375 27.6471 0 27.0111 0 26.1844V4.10175C0 3.6248 0.0795455 3.1876 0.238636 2.79014C0.397727 2.39269 0.636364 2.08267 0.954545 1.8601C1.90909 1.22417 2.90222 0.755167 3.93392 0.4531C4.9656 0.151033 6.01793 0 7.09091 0C8.52273 0 9.91477 0.27027 11.267 0.810811C12.6193 1.35135 13.8864 2.17806 15.0682 3.29094C16.2273 2.17806 17.4716 1.35135 18.8011 0.810811C20.1307 0.27027 21.5 0 22.9091 0C23.9743 0 25.019 0.151033 26.0432 0.4531C27.0674 0.755167 28.0568 1.22417 29.0114 1.8601C29.3295 2.08267 29.5739 2.39269 29.7443 2.79014C29.9148 3.1876 30 3.6248 30 4.10175V26.1844C30 27.0714 29.7443 27.7462 29.233 28.2089C28.7216 28.6717 28.2159 28.6804 27.7159 28.2353C26.9432 27.7901 26.1565 27.4324 25.3557 27.1622C24.555 26.8919 23.7395 26.7568 22.9091 26.7568C21.6756 26.7568 20.4695 27.0111 19.2908 27.5199C18.1121 28.0286 17 28.744 15.9545 29.6661C15.8409 29.7933 15.7076 29.8808 15.5546 29.9285C15.4016 29.9762 15.2395 30 15.0682 30Z" fill="#9D54E5"/>
</svg>
