<svg width="141" height="53" viewBox="0 0 141 53" fill="none" xmlns="http://www.w3.org/2000/svg">
<g filter="url(#filter0_d_26_59)">
<path d="M4.552 34V1.36003H25.672V7.12003H11.176V14.752H22.792V20.416H11.176V28.24H25.672V34H4.552Z" fill="#141414"/>
<path d="M28.2981 10H35.0181L38.8581 28.528H40.2021L44.2341 10H50.7621L45.0021 34H34.0581L28.2981 10Z" fill="#141414"/>
<path d="M59.4123 24.736C59.4443 26.208 59.8283 27.28 60.5643 27.952C61.3323 28.592 62.4203 28.912 63.8283 28.912C66.8043 28.912 69.4602 28.816 71.7962 28.624L73.1403 28.48L73.2363 33.232C69.5563 34.128 66.2283 34.576 63.2523 34.576C59.6363 34.576 57.0123 33.616 55.3803 31.696C53.7483 29.776 52.9323 26.656 52.9323 22.336C52.9323 13.728 56.4683 9.42403 63.5403 9.42403C70.5163 9.42403 74.0042 13.04 74.0042 20.272L73.5243 24.736H59.4123ZM67.6683 19.84C67.6683 17.92 67.3643 16.592 66.7563 15.856C66.1483 15.088 65.0763 14.704 63.5403 14.704C62.0363 14.704 60.9643 15.104 60.3243 15.904C59.7163 16.672 59.3963 17.984 59.3643 19.84H67.6683Z" fill="#141414"/>
<path d="M78.889 34V0.400024H85.321V34H78.889Z" fill="#141414"/>
<path d="M89.3305 10H95.6665L100.035 28.528H101.139L105.507 10H111.842L103.395 44.08H97.1065L99.7465 34H95.2345L89.3305 10Z" fill="#141414"/>
<path d="M121.971 34H115.539V10H121.923V11.344C124.099 10.064 126.099 9.42403 127.923 9.42403C131.123 9.42403 133.331 10.368 134.547 12.256C135.763 14.144 136.37 17.056 136.37 20.992V34H129.938V21.184C129.938 19.136 129.699 17.632 129.219 16.672C128.739 15.68 127.779 15.184 126.339 15.184C125.027 15.184 123.763 15.408 122.547 15.856L121.971 16.048V34Z" fill="#141414"/>
</g>
<defs>
<filter id="filter0_d_26_59" x="0.552002" y="0.400024" width="139.818" height="51.6801" filterUnits="userSpaceOnUse" color-interpolation-filters="sRGB">
<feFlood flood-opacity="0" result="BackgroundImageFix"/>
<feColorMatrix in="SourceAlpha" type="matrix" values="0 0 0 0 0 0 0 0 0 0 0 0 0 0 0 0 0 0 127 0" result="hardAlpha"/>
<feOffset dy="4"/>
<feGaussianBlur stdDeviation="2"/>
<feComposite in2="hardAlpha" operator="out"/>
<feColorMatrix type="matrix" values="0 0 0 0 0 0 0 0 0 0 0 0 0 0 0 0 0 0 0.25 0"/>
<feBlend mode="normal" in2="BackgroundImageFix" result="effect1_dropShadow_26_59"/>
<feBlend mode="normal" in="SourceGraphic" in2="effect1_dropShadow_26_59" result="shape"/>
</filter>
</defs>
</svg>
